<svg version="1.1" id="Layer_1" xmlns="http://www.w3.org/2000/svg" xmlns:xlink="http://www.w3.org/1999/xlink" x="0px" y="0px"
	 width="100%" viewBox="0 0 1024 1024" enable-background="new 0 0 1024 1024" xml:space="preserve">
<path fill="#000000" opacity="1.000000" stroke="none" 
	d="
M350.302979,620.157471 
	C351.455170,634.254883 355.213959,647.226990 360.090546,660.010864 
	C366.321442,676.344910 377.944885,688.717468 389.239746,701.395508 
	C390.204315,702.478210 391.320740,703.075256 393.196014,701.959045 
	C390.270782,699.950012 393.244934,698.226624 393.265381,696.396118 
	C393.345367,689.232056 398.271576,682.824585 396.061615,676.126099 
	C396.987183,673.870789 398.550049,675.588867 399.398895,674.576233 
	C399.875519,673.283203 399.829926,671.988525 399.094330,670.773254 
	C396.347931,666.235840 396.247131,661.965210 400.465942,658.233032 
	C402.594025,656.350464 402.248199,653.429626 402.558136,651.318237 
	C403.431213,645.371094 406.851624,639.288269 402.946808,633.144409 
	C401.918732,631.526733 402.739075,629.942993 404.017670,628.733154 
	C405.919373,627.984497 404.664551,630.878540 406.432770,630.507080 
	C406.905426,628.491150 407.391113,626.419617 407.598328,625.535889 
	C402.183838,619.069641 408.499146,613.611755 406.854309,608.553284 
	C408.977692,607.372192 408.231537,609.722107 410.078857,609.546875 
	C408.398895,594.678406 413.635742,580.358337 413.829681,564.900757 
	C406.827515,562.826599 399.485382,560.330872 391.978668,558.515808 
	C384.031158,556.594116 376.672974,553.108826 368.940002,550.662415 
	C362.024200,548.474670 355.243774,545.917358 348.403900,543.528931 
	C336.344421,539.317749 324.867004,533.861023 313.405304,528.342651 
	C306.256866,524.901001 299.111084,521.404602 292.226196,517.473694 
	C270.349670,504.983582 251.735992,488.639862 236.089493,468.924805 
	C223.869675,453.527496 215.807571,436.230774 210.522064,417.213440 
	C203.187317,390.822845 203.451279,364.094788 206.034760,337.439392 
	C207.475510,322.574493 211.318359,307.828979 217.025253,293.663177 
	C221.014145,283.761841 225.313446,274.113708 230.966263,265.117523 
	C240.398376,250.106857 251.583435,236.484589 265.050293,224.907455 
	C282.658539,209.770065 301.933746,197.148117 323.260376,187.824188 
	C338.132782,181.322006 353.290619,175.507568 368.824493,170.818832 
	C376.256866,168.575424 384.111877,167.761368 391.606293,165.688400 
	C408.631683,160.979202 426.220856,159.857574 443.567688,157.301346 
	C452.899902,155.926147 462.503723,156.353287 471.988068,156.072388 
	C475.550720,155.966858 480.252960,150.451828 479.842224,146.914444 
	C479.443237,143.478271 479.122101,139.984894 479.311218,136.546585 
	C479.425446,134.469589 479.332825,132.288361 482.050476,130.688995 
	C485.312958,128.768967 485.078094,123.363792 482.485046,120.129829 
	C482.007355,119.534027 481.390991,118.296928 481.636139,117.987236 
	C485.122223,113.583893 482.973755,108.245804 484.201508,103.501999 
	C484.306793,103.095116 484.828979,102.796135 485.622162,101.953278 
	C487.113007,106.420792 485.535858,110.589165 486.151489,114.613525 
	C487.567596,106.335411 488.353363,98.063362 486.653656,89.716324 
	C485.985321,86.434250 485.158813,83.160805 489.552216,81.354996 
	C491.591248,80.516914 490.927307,78.099052 490.517120,76.397285 
	C488.905701,69.712128 488.615967,63.183418 492.025421,56.906361 
	C494.262238,52.788261 494.036987,47.574604 497.717468,44.096569 
	C494.139862,37.665573 503.658936,35.882504 502.674316,30.296717 
	C502.601471,29.883642 503.716003,29.001867 504.423676,28.756315 
	C507.218109,27.786718 508.501678,25.932346 509.216278,23.027950 
	C509.868286,20.378021 512.061951,18.474459 514.908081,17.949375 
	C519.344177,17.130970 522.404053,14.164907 525.960449,11.767210 
	C530.035034,9.020170 534.844238,7.232432 539.524780,5.561141 
	C542.583130,4.469073 545.937500,4.581038 549.088562,3.113445 
	C551.925476,1.792162 552.940186,3.704775 551.261047,6.426547 
	C552.583618,6.672081 553.748962,6.578730 553.798035,5.701395 
	C554.025879,1.630497 557.551392,1.891347 559.187012,2.813564 
	C562.289551,4.562916 564.592773,3.538749 567.426697,2.674530 
	C570.128357,1.850667 572.882629,2.504148 575.596985,3.829682 
	C578.561646,5.277503 582.023743,8.092897 584.553467,2.918211 
	C588.881714,5.655554 593.332520,7.089489 598.040466,6.642413 
	C603.592957,6.115135 607.976624,8.705420 611.920532,11.732332 
	C614.751282,13.904875 616.137451,10.891461 618.541077,11.118344 
	C620.384094,14.167281 623.290771,14.144279 626.784851,14.449578 
	C631.233459,14.838279 635.541138,17.265450 639.822266,19.026129 
	C644.227783,20.837969 648.995544,22.125143 651.983765,27.241003 
	C653.981995,23.210197 655.712158,24.393217 658.516052,25.737890 
	C665.327759,29.004547 670.424561,34.791004 677.490479,37.690071 
	C680.488403,38.920074 683.625061,40.787663 685.549377,43.935078 
	C687.732849,47.506527 693.003235,46.470264 695.231140,50.357277 
	C698.766907,56.525917 706.990540,57.409008 710.571777,63.845352 
	C713.096680,68.383232 715.802063,72.620010 714.254395,78.362495 
	C721.220154,82.118149 719.497437,88.407898 718.415283,94.359924 
	C717.785461,97.824516 716.947021,101.109894 718.433411,104.593513 
	C719.613586,107.359406 719.265381,110.157204 718.455139,113.151695 
	C717.232361,117.670731 718.532349,122.822037 714.824036,126.769341 
	C714.286804,127.341164 714.148438,128.907089 714.538147,129.627457 
	C716.692383,133.609299 717.177246,137.246719 715.204895,141.742126 
	C714.433960,143.499268 714.613892,145.669830 712.589905,146.893784 
	C711.192932,147.738571 711.275879,149.053711 711.434692,150.491791 
	C712.755432,150.775314 714.256897,148.738541 715.274963,150.886795 
	C716.094666,152.616348 715.572632,154.161484 714.642334,155.600372 
	C713.895264,156.755737 713.004395,157.980240 711.472107,155.765228 
	C710.515320,161.025940 713.184570,165.824509 712.260986,170.775513 
	C712.049744,171.908081 712.598450,173.466385 712.011536,174.200638 
	C706.647095,180.912079 711.242676,188.341110 710.280762,195.329971 
	C709.828857,198.613693 711.750366,200.193634 714.178101,201.539505 
	C733.482239,212.240921 751.062805,225.297302 766.195129,241.342178 
	C777.366150,253.186920 787.086365,266.104584 794.895630,280.652008 
	C802.408447,294.647278 808.411499,309.076508 812.343018,324.319824 
	C815.750305,337.530518 817.628479,351.068573 817.283813,364.809570 
	C817.239502,366.576202 817.081116,368.047394 814.926392,368.592346 
	C807.381714,370.500244 799.875488,372.559265 792.337524,374.494507 
	C776.607361,378.532867 760.872559,382.553802 745.127441,386.533478 
	C734.697876,389.169617 724.256775,391.761871 713.802856,394.299652 
	C703.806519,396.726379 693.763794,398.965424 683.789185,401.476593 
	C679.903870,402.454712 674.066895,412.522583 675.893066,416.209259 
	C678.703979,421.883881 674.205688,425.152039 672.773804,429.396790 
	C672.444580,430.372742 671.076721,431.249237 671.407166,432.415802 
	C673.597778,440.149628 669.374695,447.788879 671.299011,455.616821 
	C672.218567,459.357452 670.785095,463.427368 671.059082,467.432648 
	C671.258972,470.355011 671.977783,471.929932 674.791199,473.004425 
	C682.803345,476.064392 690.804138,479.267151 698.860474,482.085022 
	C707.995605,485.280243 716.562134,489.497192 725.100037,493.787567 
	C735.450623,498.988892 746.231140,503.417572 755.990051,509.735565 
	C775.665039,522.473206 793.384583,537.324402 807.601746,556.241821 
	C814.409729,565.300537 820.844421,574.542786 825.304016,584.886780 
	C830.081909,595.968811 833.820251,607.433105 836.300842,619.366699 
	C840.350098,638.846985 839.838318,658.508667 839.106934,678.088013 
	C838.298157,699.740845 834.028442,720.727417 824.297974,740.560730 
	C819.909973,749.504639 815.670044,758.529724 810.196228,766.768921 
	C800.091736,781.978210 787.088806,794.712952 773.100891,806.325623 
	C758.384399,818.543091 741.955566,828.100891 724.711975,836.392944 
	C709.607483,843.656494 694.046509,849.764099 678.018372,854.379150 
	C667.075867,857.529846 655.993164,860.425171 644.693909,862.442993 
	C629.506897,865.155029 614.372437,867.974976 598.997559,869.537537 
	C594.947876,869.949097 591.101074,872.171509 586.288269,869.192993 
	C586.159424,874.812256 581.524780,877.394409 580.227966,882.469727 
	C579.188477,886.537781 576.201660,890.580994 574.782349,894.990845 
	C574.189453,896.833069 572.149902,895.703735 570.977966,896.094727 
	C570.835876,899.008911 572.971130,902.748657 567.739258,902.665833 
	C566.991760,908.751953 565.078857,914.189941 559.409668,918.125732 
	C561.454346,919.952759 560.541504,921.714294 558.219360,923.144958 
	C555.910522,924.567444 555.460876,927.830200 554.278137,929.002380 
	C549.706116,933.533447 548.459229,941.245911 541.108948,943.227600 
	C544.760803,945.425598 543.534851,948.077454 540.629761,948.845154 
	C537.380127,949.703857 536.848328,951.717346 536.014038,954.164917 
	C535.028503,957.055847 533.938171,960.041626 528.843506,958.807190 
	C532.352600,963.583679 524.862671,966.360168 528.646667,970.336914 
	C527.780090,972.203491 524.028137,972.007324 525.848450,975.285889 
	C526.387329,976.256470 524.967407,977.674866 523.849976,977.725891 
	C519.615662,977.919373 519.371399,982.929565 515.916260,984.024902 
	C514.870117,984.356506 515.237793,985.362244 515.641846,986.145935 
	C516.277039,987.377869 515.968262,988.865845 514.991089,989.288025 
	C507.296021,992.612061 506.817383,1003.141296 498.337280,1005.759155 
	C496.522095,1006.319458 495.655304,1008.627869 495.303650,1010.690491 
	C494.971680,1012.637695 493.903412,1014.249939 492.217468,1015.019775 
	C484.822540,1018.396484 477.799683,1023.049011 469.029816,1021.985474 
	C467.306335,1021.776550 466.248108,1020.966980 465.519043,1019.606079 
	C462.986053,1014.877563 459.706573,1010.330200 458.367615,1005.275085 
	C457.718140,1002.823181 457.174072,1001.147278 455.455078,999.342590 
	C453.950928,997.763611 456.105713,996.463623 456.936432,995.145386 
	C456.490356,993.820923 454.178864,993.766907 454.523499,992.241211 
	C456.175995,984.925598 449.727814,981.207336 447.456696,975.662537 
	C446.048401,972.224304 445.188416,968.492371 444.594543,964.809753 
	C444.040863,961.376404 443.942963,957.791809 440.962219,955.510925 
	C437.938507,953.197205 438.550201,949.708252 438.078400,946.809387 
	C437.671936,944.311951 438.188354,941.894531 434.733276,941.257874 
	C436.365509,938.067993 439.369690,934.857910 433.329803,934.748840 
	C433.162079,932.153870 435.499573,930.511902 434.616333,928.098267 
	C434.085510,928.485962 433.534698,928.888306 432.212097,929.854309 
	C432.954803,926.503418 429.036194,924.383728 431.871460,921.181030 
	C432.539551,920.426331 431.075470,919.982788 430.477142,919.513977 
	C428.987762,918.346802 428.456421,916.765564 429.014069,915.063293 
	C430.290100,911.168579 428.341858,909.455811 424.781128,908.778503 
	C424.640320,906.849792 426.381073,904.816528 423.731720,903.421265 
	C421.916016,902.464966 422.784973,900.479187 423.060364,898.860291 
	C423.792175,894.558655 423.230347,890.704346 419.564545,887.724182 
	C417.477875,886.027832 417.477936,882.894287 416.399597,881.184021 
	C413.201477,876.111755 412.762604,870.183167 409.957031,865.146118 
	C409.533203,864.385193 408.769989,864.095520 407.859802,864.040039 
	C394.053955,863.198608 380.938568,859.023071 367.578949,855.913025 
	C342.987579,850.188293 319.767700,841.009705 297.434753,829.428101 
	C276.654144,818.651611 258.237518,804.834167 241.629364,788.198120 
	C228.416443,774.962891 218.298599,759.715637 209.170410,743.762207 
	C204.370728,735.373779 201.409546,725.921143 198.324615,716.653442 
	C195.289886,707.536621 192.804398,698.336853 190.854645,688.909363 
	C189.374832,681.754089 189.353058,674.403320 187.067245,667.325867 
	C185.744736,663.231018 188.219208,659.687805 192.450241,657.772705 
	C198.674774,654.955383 205.396637,653.705261 211.854965,651.684998 
	C228.759933,646.396667 245.828003,641.634521 262.687103,636.159973 
	C271.960541,633.148743 281.540375,631.094788 290.907684,628.354980 
	C300.118652,625.660828 309.177338,622.438904 318.411346,619.833069 
	C326.382599,617.583618 334.299530,615.242554 342.120483,612.493286 
	C346.712738,610.879028 347.901306,612.237976 350.302979,620.157471 
M477.854401,647.053772 
	C476.636810,648.779846 474.955872,650.331848 475.668732,652.860962 
	C476.807587,653.368469 476.789032,651.840454 479.125092,651.707397 
	C474.151306,656.806335 476.919525,662.933716 474.239716,668.380920 
	C471.553558,673.840942 471.441315,680.574646 468.718628,686.007202 
	C466.005188,691.421265 466.363708,698.320007 460.444580,702.367554 
	C463.024994,704.600159 463.134216,709.224609 465.917725,709.486389 
	C468.795349,709.756958 469.241028,711.157837 469.906067,712.851746 
	C472.741241,720.072815 473.657043,727.622131 473.325165,735.333679 
	C473.155640,739.272644 474.649231,741.694275 478.817474,742.177368 
	C482.610626,742.617065 486.387604,743.210999 490.159973,743.810791 
	C493.745239,744.380798 496.330109,743.589233 497.277069,739.571838 
	C497.701263,737.772217 499.086304,736.556580 500.862305,735.653870 
	C502.697021,734.721252 504.700439,733.665649 505.074982,731.299255 
	C504.189941,730.412415 503.234314,732.511536 502.151337,730.458374 
	C505.404968,728.677185 506.442474,724.343201 508.501343,722.451294 
	C512.913879,718.396301 514.301086,713.299194 515.965454,708.474609 
	C517.945435,702.735168 520.645691,697.730225 524.483887,693.177368 
	C527.022583,690.165894 530.926697,687.612122 528.119568,682.682190 
	C527.889465,682.278015 528.361023,681.433289 528.581177,680.820068 
	C530.543518,675.353394 530.865723,669.723450 529.093018,664.264709 
	C527.707214,659.997437 528.240967,655.899353 529.582703,652.067078 
	C530.952209,648.155334 531.624084,643.948730 532.302185,640.119019 
	C533.516174,633.262695 535.583130,626.641052 537.058655,619.886841 
	C537.810669,616.444397 535.864258,612.672913 537.286377,610.275269 
	C541.068054,603.899170 538.902283,596.773804 540.938904,590.058167 
	C542.989380,583.296692 543.588684,575.392090 542.922241,567.845642 
	C542.749939,565.895264 542.724487,563.698547 543.440735,561.945557 
	C545.839478,556.074707 546.358765,550.069031 545.687744,543.859375 
	C545.314758,540.407471 545.428406,536.124756 547.236389,534.014099 
	C550.078491,530.696289 545.546326,526.513672 549.498291,524.103455 
	C545.206238,519.424377 549.610840,515.078674 550.952148,511.415405 
	C553.527222,504.382599 555.581970,497.617126 554.533936,490.109741 
	C554.425903,489.335815 554.637573,488.402100 554.999390,487.695404 
	C558.969421,479.942017 556.642700,470.811951 560.410217,463.018677 
	C560.521606,462.788361 560.240479,462.390167 560.204224,462.063354 
	C559.622925,456.822754 561.920105,451.854950 561.648926,446.553772 
	C561.569702,445.004059 560.669617,442.649048 561.878357,441.412689 
	C566.576843,436.606781 564.674316,430.527405 565.523499,424.975159 
	C566.403137,419.223724 567.737244,413.668060 567.895569,407.664490 
	C568.033447,402.432953 569.218262,396.873657 568.770020,391.587097 
	C568.020081,382.741089 567.309143,373.872040 568.962708,365.204651 
	C569.735596,361.153778 572.484741,357.503998 570.758423,353.046570 
	C570.611206,352.666382 570.903320,352.064484 571.098022,351.611420 
	C573.178528,346.770355 573.568542,341.446075 575.733276,336.573883 
	C578.868835,329.516754 577.286133,321.498352 579.552612,314.229401 
	C580.488159,311.228760 581.968445,308.199127 578.042908,306.626678 
	C575.250793,305.508270 573.493103,301.938171 570.292725,302.535522 
	C560.992004,304.271393 553.104370,296.922089 543.778076,298.744934 
	C542.104370,299.072113 541.454041,297.466583 544.762146,296.369659 
	C540.777466,296.414124 536.602173,294.929291 535.364502,298.208527 
	C533.143005,304.094452 531.492310,310.468781 531.227295,316.707977 
	C531.089539,319.952148 530.951050,322.891785 529.467957,325.618500 
	C527.599365,329.053894 526.785400,332.684723 526.201172,336.493439 
	C525.030640,344.124664 523.771606,351.750580 522.237732,359.315582 
	C520.683716,366.979736 516.831604,374.342834 519.630249,382.505127 
	C519.814941,383.043854 519.666443,384.031128 519.282593,384.379181 
	C515.039185,388.226349 516.737244,393.395599 516.171509,398.042450 
	C515.992432,399.513062 516.509399,401.243164 515.396851,402.365570 
	C512.033813,405.758331 512.115051,410.156555 511.410065,414.321838 
	C515.806396,414.426544 514.081421,417.447998 513.425781,419.014801 
	C511.328003,424.027863 506.229279,428.396362 510.747009,434.532776 
	C508.415924,439.752869 510.028992,446.392822 504.427551,450.566162 
	C506.433746,452.508575 507.150635,454.374634 506.329407,456.946838 
	C504.084564,463.978058 504.214844,471.499664 501.611084,478.576691 
	C500.360291,481.976410 498.486359,487.139526 499.388824,489.374542 
	C501.659393,494.997803 497.525665,498.425812 496.911560,502.862732 
	C495.951477,509.798950 493.384399,516.417725 492.809998,523.559143 
	C492.520172,527.162048 495.219452,530.752075 492.959290,534.007935 
	C490.717987,537.236633 490.997314,540.617859 491.357483,544.066711 
	C491.786652,548.176147 491.145325,552.358887 489.259979,555.665100 
	C487.160522,559.346863 485.873810,563.222229 486.181061,566.995422 
	C486.480591,570.674377 485.034302,574.230713 485.391449,577.270325 
	C486.176331,583.950317 482.177551,589.508301 482.899048,596.185242 
	C483.809570,604.612183 478.142578,612.826233 480.917236,621.653625 
	C481.114197,622.280273 480.298370,623.164612 480.168335,623.964111 
	C478.958496,631.401184 474.456116,638.511475 477.854401,647.053772 
M563.685608,53.030933 
	C555.096985,50.010296 546.663818,49.012337 537.350220,50.871071 
	C529.632080,52.411400 523.471863,55.764687 518.333069,59.382633 
	C517.703735,64.245178 514.759521,67.145126 513.450256,70.644821 
	C511.722717,75.262787 516.033142,79.604279 513.492798,84.092049 
	C512.063660,82.781685 511.574432,83.031387 511.232574,85.028671 
	C510.621979,88.596169 511.077911,92.156548 510.024261,95.822853 
	C507.818817,103.497070 506.686157,111.479584 505.135437,119.223053 
	C506.452667,119.668571 507.131775,117.919456 507.698395,119.256279 
	C506.057281,126.962212 499.679077,133.653198 503.952850,142.182266 
	C504.259766,142.794769 504.074799,143.989838 503.651215,144.576782 
	C501.203156,147.968826 502.888947,152.142563 501.085266,155.294113 
	C502.118683,156.554306 503.123932,156.622864 504.127014,156.672760 
	C517.751404,157.350723 531.395203,157.766022 544.994751,158.777145 
	C557.055725,159.673889 569.055603,161.364166 581.104858,162.457214 
	C591.510254,163.401138 601.763428,165.019394 611.884216,167.649475 
	C623.549866,170.681015 635.572693,171.955841 647.072449,176.078903 
	C657.555176,179.837311 668.043457,183.591385 678.489868,187.461014 
	C682.429810,188.920486 685.063904,187.020981 685.930603,182.838776 
	C686.956909,177.887146 689.783447,173.160980 687.196533,167.869324 
	C686.938904,167.342316 687.474792,166.213516 687.939270,165.582718 
	C690.592407,161.980087 690.844299,157.584427 690.474365,153.660004 
	C689.666077,145.086319 691.965088,136.752411 691.550781,128.260895 
	C691.149475,120.037598 693.647644,111.763489 691.278809,103.583115 
	C690.344299,100.355804 692.361938,100.379158 694.533875,100.710060 
	C694.533875,99.256401 694.808044,98.160500 694.485413,97.284409 
	C693.229980,93.875702 692.700073,90.783951 694.423401,87.115952 
	C695.543274,84.732567 694.705750,81.977898 691.796021,79.874809 
	C682.835876,73.398636 673.282166,69.888512 662.068054,71.386490 
	C660.182251,71.638405 657.622925,72.037010 656.084351,69.861725 
	C655.298584,68.750748 654.377869,68.341888 653.104187,69.010460 
	C648.985718,71.172157 645.863403,69.259430 642.784851,66.164612 
	C641.205994,67.877762 639.416016,68.749886 637.088989,67.859772 
	C632.156189,65.972885 627.719910,63.533226 621.761902,63.944405 
	C613.088867,64.542961 604.642578,60.045898 595.683777,61.118088 
	C594.693970,61.236549 593.198608,61.030621 593.131470,60.026604 
	C592.781555,54.794338 588.761658,56.905891 586.087402,56.286415 
	C580.914062,55.088032 575.492432,56.058064 570.360046,54.389835 
	C568.474976,53.777130 566.459473,53.565823 563.685608,53.030933 
M489.920837,455.965759 
	C490.011749,452.473724 491.665985,448.438690 491.029083,445.816223 
	C490.207642,442.433746 490.183685,439.845764 491.636017,437.116913 
	C494.459534,431.811523 494.152130,425.725677 496.125214,420.213531 
	C496.664429,418.707092 496.862030,416.869965 496.565948,415.307892 
	C495.009949,407.098877 499.200317,399.832947 500.142822,392.052612 
	C500.747406,387.061981 504.147308,381.982178 503.949554,377.952209 
	C503.516754,369.131805 510.224060,361.384705 506.841400,352.518372 
	C506.699738,352.147156 507.286865,351.291260 507.746124,350.930969 
	C510.714081,348.602509 510.389801,345.326843 510.690002,341.884735 
	C509.216736,343.287567 509.914917,345.387482 507.738312,346.815155 
	C508.561310,340.694855 507.557709,334.805847 512.666016,330.383362 
	C514.126648,329.118835 514.941223,326.062714 513.893799,324.874908 
	C509.708954,320.129150 513.669006,318.382172 516.500977,316.492859 
	C516.827026,314.525757 513.527405,315.534851 514.625488,313.494293 
	C516.174744,310.615509 515.649231,307.166901 517.547119,304.321136 
	C522.325867,297.155853 519.767578,291.388916 511.597076,289.181702 
	C509.096985,288.506287 506.009094,289.550629 504.013550,286.929779 
	C500.925507,282.874054 488.952881,282.345276 485.557129,286.043335 
	C485.332977,286.287445 485.011230,286.542175 484.961182,286.831177 
	C483.830872,293.357117 482.730438,299.888214 481.641602,306.421234 
	C481.621399,306.542236 481.921906,306.750244 481.884705,306.829926 
	C480.606934,309.567596 482.946411,313.017029 481.603699,314.942017 
	C477.852661,320.319733 478.218658,326.893005 475.507050,332.483185 
	C474.955475,333.620300 474.443604,335.477051 474.981689,336.321045 
	C477.304047,339.963928 475.036346,342.731384 473.957703,345.927124 
	C473.033813,348.664490 471.899200,353.731323 472.878174,354.301971 
	C477.545990,357.023010 474.009125,359.765503 473.208618,361.851166 
	C471.731781,365.699005 470.817230,369.549774 470.473663,373.604858 
	C469.556610,384.429810 468.051819,395.250000 467.995056,406.078430 
	C467.975037,409.901245 465.680389,412.927765 466.334808,416.889771 
	C466.959991,420.674957 467.331360,426.413239 465.163269,428.400085 
	C457.866333,435.086914 464.333466,445.504364 457.693420,451.890900 
	C457.517944,452.059692 457.737854,452.879639 457.999268,453.224945 
	C460.328217,456.301239 458.657104,459.558685 458.842865,463.380768 
	C457.957428,462.244751 457.511719,461.672943 457.066040,461.101135 
	C457.502197,467.264374 454.609222,472.598297 453.126465,478.247925 
	C452.861481,479.257568 452.801270,480.129730 453.381683,481.093140 
	C454.811890,483.467010 454.172546,485.679565 453.209167,488.174133 
	C452.025574,491.238861 451.127075,494.332062 449.742950,497.407104 
	C444.312714,509.471222 445.136566,523.058899 441.518463,535.688599 
	C439.762512,541.818115 440.351929,548.600098 438.772217,554.804749 
	C437.064880,561.510803 436.393097,568.351074 435.030701,575.087158 
	C434.007629,580.145386 435.384735,585.956360 433.490631,590.517456 
	C429.107758,601.071472 429.955566,612.387451 428.076355,623.196167 
	C426.420471,632.720276 424.517700,642.214417 422.556641,651.694031 
	C422.511963,651.909973 422.765228,652.187500 422.910736,652.504272 
	C424.016083,652.055115 424.063110,650.368713 426.774780,650.357727 
	C417.902496,663.385498 421.692749,678.558533 416.917450,692.561768 
	C418.260620,692.063354 418.953796,691.806091 419.792816,691.494690 
	C420.222778,693.199341 420.050964,694.796814 418.699799,695.664062 
	C413.851074,698.776062 415.275543,703.873596 414.652405,708.252930 
	C414.456726,709.628113 414.970276,711.109558 414.462158,712.620728 
	C411.755737,720.669678 411.767639,720.725342 419.082092,724.445862 
	C421.151093,725.498291 423.424072,726.141724 425.547211,727.097778 
	C427.698364,728.066406 429.650696,727.585205 430.973236,725.928528 
	C432.990875,723.401123 435.920593,720.648254 436.713043,718.280640 
	C438.942688,711.619019 443.913788,708.717957 449.216492,705.633728 
	C454.993866,702.273438 458.390442,695.255920 457.278503,688.672058 
	C456.781799,685.731201 457.121979,682.944275 458.336975,680.390259 
	C459.476929,677.994019 460.060181,675.749146 459.088959,673.222900 
	C458.652405,672.087402 458.474152,670.861816 459.266754,669.876343 
	C461.295746,667.353455 460.770599,664.525696 460.282776,661.761780 
	C459.978394,660.037170 459.882263,658.493286 460.974091,657.015381 
	C463.153687,654.065125 463.374115,650.543579 462.177429,647.463257 
	C460.031342,641.938965 462.279205,636.398193 463.184052,631.596191 
	C464.373779,625.282410 465.493073,618.972656 465.967621,612.568970 
	C466.232849,608.989868 466.654419,605.329590 467.340942,601.937439 
	C468.339355,597.004333 469.685791,592.275635 468.437836,587.263489 
	C467.681183,584.224609 468.198975,581.473267 469.185059,578.507568 
	C470.587677,574.289124 472.410980,569.709045 471.955261,565.511414 
	C471.473785,561.076111 471.957672,557.383728 473.815277,553.563965 
	C474.309814,552.546997 474.537109,551.326599 474.597473,550.184265 
	C474.914276,544.192078 474.462799,538.301147 476.453156,532.254150 
	C477.526062,528.994507 479.175690,524.683350 477.788208,521.003601 
	C476.599548,517.851196 477.179108,515.297302 477.936340,512.343140 
	C478.531464,510.021332 481.387695,508.881622 481.080811,506.579346 
	C480.429749,501.695312 483.013092,497.644653 483.880341,493.174194 
	C484.411377,490.436951 485.952271,486.233978 484.772278,485.144165 
	C481.493378,482.115906 483.570374,479.437500 484.364716,477.017151 
	C485.214844,474.426849 485.506012,471.871826 485.789093,469.255737 
	C486.195526,465.499725 486.418976,461.717987 487.000549,457.990936 
	C487.150085,457.032776 486.677795,454.251007 489.920837,455.965759 
M597.713562,455.520660 
	C597.836487,454.252686 599.681213,455.868439 599.950256,453.783783 
	C600.767944,447.448853 601.346741,441.033203 603.396362,434.898041 
	C604.020203,433.030823 604.681519,431.060883 603.738220,429.060272 
	C601.872375,425.103271 603.414551,421.621368 605.455017,418.354340 
	C606.268738,417.051544 606.867493,415.863892 607.096313,414.318878 
	C607.798584,409.577271 605.533997,404.416656 609.099976,400.056946 
	C609.466675,399.608612 609.637329,398.678833 609.439575,398.141571 
	C608.058472,394.390137 609.769592,391.101837 611.607178,388.342773 
	C614.711426,383.681732 611.348267,377.983551 614.599426,373.543365 
	C611.649597,371.093658 613.863647,368.502441 614.873962,366.459442 
	C617.752563,360.638672 616.009521,353.734406 619.514648,348.110931 
	C619.975525,347.371460 620.101990,345.800201 619.633179,345.208557 
	C617.133179,342.053375 618.795349,339.050385 620.130615,336.410736 
	C621.969482,332.775360 620.108521,328.266113 623.250122,325.466705 
	C621.980835,323.284454 620.882446,321.437988 619.824829,319.568390 
	C618.060791,316.449921 615.772217,312.683960 612.391174,312.772614 
	C607.604309,312.898163 603.425659,310.757111 598.643921,310.851074 
	C589.941711,311.022156 589.958252,310.507202 587.529541,318.568085 
	C586.297180,322.658356 586.550049,326.295380 588.071289,330.563385 
	C589.789307,335.383514 593.629395,340.245605 590.464050,346.262085 
	C589.265259,348.540588 589.090149,351.979065 589.805176,354.504761 
	C591.034668,358.848022 590.353821,363.739288 589.012512,366.781769 
	C586.823059,371.747650 587.170227,376.752228 585.842529,381.576477 
	C583.989380,388.309998 587.139099,395.447784 583.114380,402.293518 
	C581.656372,404.773499 582.889038,409.761749 582.668213,413.665955 
	C582.126709,423.238281 579.261780,432.441467 579.561462,442.217194 
	C579.804504,450.143097 577.920898,458.278229 574.225708,465.750275 
	C572.894714,468.441803 572.137695,471.934326 573.650391,474.787537 
	C574.703735,476.774323 574.107239,478.064209 573.729858,479.859650 
	C572.817871,484.199219 569.412109,487.768066 569.583740,492.288177 
	C569.756653,496.840332 569.598022,501.183594 568.403320,505.667664 
	C567.479370,509.135559 565.744263,512.549927 566.179871,516.342712 
	C567.179993,525.049927 564.130066,533.024170 561.568970,541.057739 
	C560.429565,544.631775 559.902039,548.087952 560.779541,551.817139 
	C561.728943,555.852173 561.142151,559.811890 558.820496,563.315369 
	C557.964172,564.607727 557.264221,565.806030 557.272461,567.399292 
	C557.352356,582.909363 554.444336,598.015442 551.597839,613.191528 
	C548.995300,627.067078 548.229492,641.247314 543.554077,654.778870 
	C540.372375,663.987488 539.838257,674.055786 535.277466,682.838806 
	C532.135925,688.888550 533.835876,694.606567 536.454468,699.780273 
	C541.691345,710.126892 541.457947,721.123474 541.567383,732.126831 
	C541.613770,736.793457 542.936157,741.149597 545.854004,744.346252 
	C548.252075,746.973328 564.230957,744.009033 567.826172,740.870544 
	C565.714478,739.684021 565.384155,737.773132 566.489868,735.916382 
	C571.142639,728.103516 568.084290,719.398926 568.963684,711.194275 
	C569.581604,705.429626 568.943176,699.025635 569.156494,693.005493 
	C569.275757,689.638855 567.261902,686.139221 568.525024,683.494446 
	C572.188965,675.822571 571.187988,667.563721 572.469360,659.633789 
	C574.010620,650.095520 571.341980,640.064941 575.575256,630.768494 
	C575.639709,630.626953 575.629639,630.435242 575.608154,630.273132 
	C574.950256,625.323059 576.344055,620.686646 577.189453,615.862244 
	C578.804993,606.643005 579.498230,597.195068 578.060974,587.738892 
	C580.557739,588.958130 580.551453,587.227173 580.664246,585.688232 
	C580.958313,581.677856 581.449951,577.297363 581.171143,573.696838 
	C580.160767,560.650940 585.890503,548.315735 584.197754,535.375122 
	C584.100464,534.631775 584.378357,533.637573 584.846985,533.053040 
	C589.501282,527.247192 588.083313,520.719604 587.446899,513.882507 
	C589.925110,512.793152 590.712646,510.213928 589.885681,507.660553 
	C588.794983,504.292816 589.843201,501.588898 591.565979,499.043579 
	C593.160828,496.687286 594.009949,493.966339 593.548523,491.493011 
	C592.847900,487.736938 593.541626,484.709442 594.468506,480.990692 
	C596.474304,472.942810 599.099915,464.640717 597.713562,455.520660 
M583.143066,692.468018 
	C583.665405,702.044861 582.451965,711.506348 581.418640,720.995850 
	C580.717896,727.431946 579.195007,733.988220 582.552002,740.644409 
	C586.675354,740.471802 590.841309,739.631653 594.738708,737.675171 
	C596.061951,737.010925 597.540710,736.146301 597.566528,734.438416 
	C597.653564,728.673401 600.481628,723.449341 600.590210,717.576050 
	C600.631897,715.319153 599.635681,712.896851 600.820374,710.458618 
	C605.307312,701.223328 607.977661,691.550781 606.897217,681.130798 
	C606.757019,679.778503 606.727783,678.299500 607.872620,677.420349 
	C609.570740,676.116211 609.584534,674.330017 609.814636,672.513977 
	C612.006592,655.212158 614.459900,637.940308 616.672363,620.650574 
	C617.359619,615.279785 619.770081,610.279541 619.129883,604.334351 
	C618.653748,599.912720 619.126465,594.329529 621.956238,589.861267 
	C622.769470,588.577209 623.470947,586.470703 622.460388,585.642029 
	C619.619202,583.312317 621.371216,580.676941 622.159729,578.866089 
	C625.235107,571.803162 626.027771,564.331238 627.228149,556.886963 
	C627.582886,554.686584 625.682190,552.904053 626.861633,550.603088 
	C629.807678,544.855957 628.067749,538.262512 630.527832,532.102539 
	C634.825073,521.342285 630.580139,508.855835 636.174866,498.054749 
	C636.659424,497.119293 636.564148,495.737915 636.376465,494.624664 
	C635.497559,489.410400 636.828796,484.292908 637.743591,479.349731 
	C639.093811,472.053162 641.887207,465.030060 643.933167,457.852692 
	C644.796082,454.825745 646.826477,450.855804 645.673889,448.806183 
	C643.536194,445.005157 645.664124,442.737061 646.752075,440.025787 
	C651.871277,427.267975 652.769897,413.580048 654.307251,400.268158 
	C656.202820,383.854187 651.818054,367.835175 645.098328,352.756134 
	C643.393860,348.931427 642.067505,344.437073 638.018860,341.611450 
	C635.024475,348.256958 631.469604,354.294067 631.213867,361.372223 
	C631.070557,365.337799 631.032349,369.202576 629.018982,372.798828 
	C628.500427,373.725220 627.804504,375.169586 628.974854,376.020172 
	C631.628296,377.948700 630.748962,380.673401 629.604858,382.280365 
	C625.136475,388.556335 625.626587,396.207458 623.229309,403.020081 
	C622.036987,406.408630 621.970703,409.877411 622.873047,413.338074 
	C623.780273,416.817230 623.031067,420.480560 621.054749,422.825836 
	C616.571411,428.146271 617.428345,434.196960 617.614990,440.117615 
	C617.678406,442.129211 617.773193,443.878143 617.129761,445.833710 
	C614.411560,454.095154 611.961609,462.378235 613.803101,471.317139 
	C614.285217,473.657684 614.729797,476.326874 611.490540,478.212677 
	C609.263977,479.508881 608.591309,482.900848 610.023743,485.325409 
	C611.252380,487.404846 611.091187,489.186615 610.301575,490.964905 
	C608.580139,494.841858 609.274780,499.351715 605.861328,502.981689 
	C603.738037,505.239624 605.026550,509.647919 604.570068,513.072510 
	C603.790588,518.920410 599.593018,524.546265 602.867371,530.837341 
	C603.408997,531.878052 602.145691,532.925720 601.612427,533.949280 
	C599.297546,538.393005 597.145203,542.883972 599.594482,548.039856 
	C600.248840,549.417358 599.240356,550.498596 598.849365,551.744934 
	C597.075439,557.400513 595.121033,563.463989 596.364990,569.104614 
	C597.590332,574.661377 597.295227,579.897644 595.536499,584.696106 
	C593.805969,589.417542 594.619751,594.172180 593.732361,598.848694 
	C593.147156,601.932678 590.930115,605.583801 592.401184,608.356262 
	C594.383728,612.092590 593.322937,615.405212 591.746338,617.997009 
	C588.507812,623.320496 589.656067,628.903503 589.275879,634.437439 
	C588.950684,639.170898 589.093140,644.076660 587.842163,648.576294 
	C585.442932,657.206177 585.888306,666.000122 585.178284,674.727844 
	C585.031250,676.534424 586.692505,678.557495 585.467407,680.062134 
	C582.610046,683.571594 583.467346,687.619446 583.143066,692.468018 
M413.988098,398.458160 
	C419.499969,402.304626 425.908936,404.282867 431.866333,407.185699 
	C436.285553,409.339050 439.803650,409.804108 443.876007,405.751556 
	C439.123260,402.197754 440.011444,398.302155 443.283478,394.275970 
	C444.184906,393.166779 443.518433,391.716339 443.235077,390.411652 
	C442.769867,388.269745 442.227386,385.719452 443.479614,384.075867 
	C445.713623,381.143616 445.052368,378.138275 444.755341,375.088867 
	C444.297241,370.385254 444.534088,366.057434 449.627991,363.837250 
	C446.226288,359.382477 446.957977,356.213959 449.933594,350.768799 
	C451.459290,347.976837 455.975525,343.762695 449.648071,340.455017 
	C448.523010,339.866882 448.560028,337.641632 449.593292,336.826324 
	C455.020172,332.544037 451.863953,325.357025 455.320709,320.430450 
	C455.806183,319.738495 455.888275,318.245789 455.470551,317.517670 
	C451.071716,309.850555 457.022308,303.764252 458.339142,296.559540 
	C456.249146,295.290100 456.554413,292.832825 456.861969,290.753906 
	C455.642487,289.697418 454.649536,290.013550 453.680939,290.235901 
	C446.111450,291.973419 438.568542,293.796021 431.279938,296.543579 
	C414.691406,302.796753 398.433472,309.493042 387.313293,324.433502 
	C377.547668,337.554108 374.958435,354.510620 382.256500,369.538727 
	C388.829407,383.073486 400.754395,391.002747 413.988098,398.458160 
M481.026825,870.196838 
	C477.146667,868.604492 473.166321,870.330444 469.158447,869.738281 
	C459.295441,868.280945 449.334320,867.484436 439.410095,866.446838 
	C437.473969,866.244446 435.290771,866.362732 435.424713,868.914124 
	C436.007904,880.022034 436.665649,891.153625 443.563995,900.665833 
	C444.028107,901.305908 444.721649,902.193787 444.579987,902.794556 
	C443.217682,908.570862 447.600861,912.732666 448.656219,917.807129 
	C449.868011,923.633850 455.692932,927.820984 454.591156,934.596863 
	C455.924957,935.421204 457.326416,936.209167 458.689972,936.260071 
	C465.312408,930.027222 468.801605,921.929688 473.891724,914.951233 
	C474.255890,914.451904 474.976044,914.243774 474.197632,913.455994 
	C471.623993,910.851807 474.387573,910.342407 475.871735,909.347656 
	C478.548706,907.553650 480.625336,905.792542 481.703888,902.161987 
	C484.089722,894.130981 490.657806,889.152771 497.527283,885.010986 
	C502.276855,882.147400 507.618835,884.324097 511.006927,887.148621 
	C514.449585,890.018555 519.576843,892.907166 518.488586,899.318909 
	C517.916443,902.689758 521.551880,905.556458 521.428284,908.627136 
	C521.112915,916.461975 520.673767,924.158203 524.575134,931.773132 
	C528.927734,932.295593 531.574768,928.527771 534.254578,926.218018 
	C536.910095,923.929321 534.975403,918.358032 539.320923,916.223511 
	C540.317871,917.481445 537.840698,918.443665 539.256714,919.963989 
	C548.056335,905.858765 553.241638,889.862915 563.071594,876.542358 
	C562.390930,876.353638 561.844666,878.249451 560.775879,877.035400 
	C561.659729,872.442444 560.590088,871.218872 555.288696,871.076843 
	C545.815002,870.822998 536.361023,870.385864 526.858032,870.888916 
	C511.887878,871.681396 496.925110,869.423340 481.026825,870.196838 
M658.505920,650.999878 
	C653.865662,644.530884 649.329224,637.955139 641.829163,634.012146 
	C639.820679,657.802795 629.691772,679.460327 629.861023,702.294617 
	C629.773071,702.368408 630.458435,701.793396 632.021423,700.481995 
	C630.954102,707.745789 626.514099,713.199890 627.326782,719.721436 
	C630.255676,720.406250 632.524170,718.934692 634.870789,717.352112 
	C643.098022,711.803284 649.442749,704.507751 655.856628,696.981750 
	C664.341858,687.025208 667.247070,661.900879 658.505920,650.999878 
M546.251892,22.805410 
	C547.024475,22.710676 547.797058,22.615944 548.569641,22.521212 
	C545.073914,25.659882 539.617493,26.008583 537.635132,31.521435 
	C540.870667,34.290215 543.555359,38.922287 548.458740,33.278713 
	C548.874634,32.800056 550.441895,32.965042 551.304810,33.286243 
	C560.679199,36.775822 571.599915,34.727711 580.125122,41.322742 
	C580.656311,41.733624 581.732178,41.484978 582.553223,41.469143 
	C587.540588,41.372952 592.472595,41.265766 596.865906,44.396229 
	C598.307312,45.423283 600.329102,47.502804 601.759888,43.940277 
	C602.127258,43.025501 603.629944,43.522984 604.549561,43.767353 
	C609.669617,45.128067 614.789368,46.499222 619.862488,48.022476 
	C621.513550,48.518215 623.047607,49.003330 624.647644,48.094017 
	C627.304749,46.583977 629.840820,47.397194 632.156128,48.741089 
	C634.267822,49.966793 636.246094,50.287243 638.733521,50.091106 
	C642.270447,49.812214 646.861389,48.698715 649.060608,51.944550 
	C651.530640,55.589954 655.704285,56.445961 657.803711,55.376709 
	C661.252808,53.620007 664.385437,55.159512 667.591736,54.529392 
	C665.930786,50.881042 661.333923,50.517841 659.903442,47.691216 
	C657.478943,42.900631 653.153198,43.235271 649.262573,42.446751 
	C648.208740,42.233162 647.058044,42.707458 646.447144,41.472340 
	C644.318665,37.168846 640.075134,35.799145 636.101318,35.666698 
	C625.468079,35.312305 615.998291,30.633259 605.878113,28.559694 
	C600.967590,27.553574 597.669373,23.438240 591.796265,23.671452 
	C586.614685,23.877201 580.864807,23.848860 575.354553,21.145821 
	C570.533203,18.780766 564.502014,17.218910 558.792419,21.354294 
	C556.541809,22.984404 553.125977,25.018017 549.845520,21.703627 
	C549.000183,20.849606 546.586731,20.490755 546.251892,22.805410 
M521.571838,745.906921 
	C523.160339,745.832275 524.920410,746.386719 526.334534,744.353027 
	C524.693909,743.224854 523.877075,741.376099 522.926697,739.691162 
	C517.176697,742.444031 516.957703,743.173584 521.571838,745.906921 
z"/>
</svg>